<mxfile modified="2023-11-08T18:48:38.380Z" host="app.diagrams.net" agent="Mozilla/5.0 (Windows NT 10.0; Win64; x64; rv:109.0) Gecko/20100101 Firefox/119.0" etag="rArnFwulT_MUqcxHiqXR" version="22.0.8" type="github">
  <diagram id="Ht1M8jgEwFfnCIfOTk4-" name="Page-1">
    <mxGraphModel dx="1195" dy="622" grid="1" gridSize="10" guides="1" tooltips="1" connect="1" arrows="1" fold="1" page="1" pageScale="1" pageWidth="1169" pageHeight="827" math="0" shadow="0">
      <root>
        <mxCell id="0" />
        <mxCell id="1" parent="0" />
        <mxCell id="usY2DlJmlBuPkNGMXfCU-2" value="" style="sketch=0;outlineConnect=0;gradientColor=none;html=1;whiteSpace=wrap;fontSize=12;fontStyle=0;shape=mxgraph.aws4.group;grIcon=mxgraph.aws4.group_vpc;strokeColor=#879196;fillColor=none;verticalAlign=top;align=left;spacingLeft=30;fontColor=#879196;dashed=0;" parent="1" vertex="1">
          <mxGeometry x="180" y="120" width="750" height="390" as="geometry" />
        </mxCell>
        <mxCell id="usY2DlJmlBuPkNGMXfCU-13" value="&lt;div&gt;Public&amp;nbsp;&lt;/div&gt;&lt;div&gt;Subnet 2&lt;/div&gt;&lt;div&gt;&lt;br&gt;&lt;/div&gt;" style="sketch=0;outlineConnect=0;gradientColor=none;html=1;whiteSpace=wrap;fontSize=12;fontStyle=0;shape=mxgraph.aws4.group;grIcon=mxgraph.aws4.group_subnet;strokeColor=#879196;fillColor=none;verticalAlign=top;align=left;spacingLeft=30;fontColor=#879196;dashed=0;" parent="1" vertex="1">
          <mxGeometry x="460" y="360" width="220" height="140" as="geometry" />
        </mxCell>
        <mxCell id="usY2DlJmlBuPkNGMXfCU-14" value="&lt;div&gt;Public&lt;/div&gt;&lt;div&gt;Subnet 1&lt;br&gt;&lt;/div&gt;" style="sketch=0;outlineConnect=0;gradientColor=none;html=1;whiteSpace=wrap;fontSize=12;fontStyle=0;shape=mxgraph.aws4.group;grIcon=mxgraph.aws4.group_subnet;strokeColor=#879196;fillColor=none;verticalAlign=top;align=left;spacingLeft=30;fontColor=#879196;dashed=0;" parent="1" vertex="1">
          <mxGeometry x="460" y="165" width="220" height="140" as="geometry" />
        </mxCell>
        <mxCell id="usY2DlJmlBuPkNGMXfCU-33" value="" style="rounded=1;arcSize=10;dashed=1;strokeColor=#ff0000;fillColor=none;gradientColor=none;dashPattern=8 4;strokeWidth=2;" parent="1" vertex="1">
          <mxGeometry x="560" y="190" width="100" height="100" as="geometry" />
        </mxCell>
        <mxCell id="usY2DlJmlBuPkNGMXfCU-7" value="" style="sketch=0;outlineConnect=0;fontColor=#232F3E;gradientColor=none;fillColor=#8C4FFF;strokeColor=none;dashed=0;verticalLabelPosition=bottom;verticalAlign=top;align=center;html=1;fontSize=12;fontStyle=0;aspect=fixed;pointerEvents=1;shape=mxgraph.aws4.internet_gateway;" parent="1" vertex="1">
          <mxGeometry x="150" y="250" width="60" height="60" as="geometry" />
        </mxCell>
        <mxCell id="usY2DlJmlBuPkNGMXfCU-10" value="&lt;div&gt;Internet Gateway&lt;/div&gt;" style="text;strokeColor=none;align=center;fillColor=none;html=1;verticalAlign=middle;whiteSpace=wrap;rounded=0;" parent="1" vertex="1">
          <mxGeometry x="150" y="320" width="60" height="30" as="geometry" />
        </mxCell>
        <mxCell id="usY2DlJmlBuPkNGMXfCU-16" value="AWS Fargate" style="sketch=0;outlineConnect=0;fontColor=#232F3E;gradientColor=none;strokeColor=#ffffff;fillColor=#232F3E;dashed=0;verticalLabelPosition=middle;verticalAlign=bottom;align=center;html=1;whiteSpace=wrap;fontSize=10;fontStyle=1;spacing=3;shape=mxgraph.aws4.productIcon;prIcon=mxgraph.aws4.fargate;" parent="1" vertex="1">
          <mxGeometry x="580" y="200" width="60" height="90" as="geometry" />
        </mxCell>
        <mxCell id="usY2DlJmlBuPkNGMXfCU-17" value="&lt;div&gt;IP: 10.0.0.0/16&lt;/div&gt;" style="text;html=1;align=center;verticalAlign=middle;resizable=0;points=[];autosize=1;strokeColor=none;fillColor=none;" parent="1" vertex="1">
          <mxGeometry x="485" y="100" width="100" height="30" as="geometry" />
        </mxCell>
        <mxCell id="usY2DlJmlBuPkNGMXfCU-18" value="&lt;div&gt;IP: 10.0.2.0/24&lt;/div&gt;" style="text;html=1;align=center;verticalAlign=middle;resizable=0;points=[];autosize=1;strokeColor=none;fillColor=none;" parent="1" vertex="1">
          <mxGeometry x="550" y="340" width="100" height="30" as="geometry" />
        </mxCell>
        <mxCell id="usY2DlJmlBuPkNGMXfCU-19" value="&lt;div&gt;IP: 10.0.1.0/24&lt;/div&gt;" style="text;html=1;align=center;verticalAlign=middle;resizable=0;points=[];autosize=1;strokeColor=none;fillColor=none;" parent="1" vertex="1">
          <mxGeometry x="550" y="140" width="100" height="30" as="geometry" />
        </mxCell>
        <mxCell id="usY2DlJmlBuPkNGMXfCU-20" value="Route table" style="sketch=0;outlineConnect=0;fontColor=#232F3E;gradientColor=none;strokeColor=#232F3E;fillColor=#ffffff;dashed=0;verticalLabelPosition=bottom;verticalAlign=top;align=center;html=1;fontSize=12;fontStyle=0;aspect=fixed;shape=mxgraph.aws4.resourceIcon;resIcon=mxgraph.aws4.route_table;" parent="1" vertex="1">
          <mxGeometry x="280" y="245" width="105" height="105" as="geometry" />
        </mxCell>
        <mxCell id="usY2DlJmlBuPkNGMXfCU-21" value="" style="endArrow=classic;startArrow=classic;html=1;rounded=0;flowAnimation=1;" parent="1" source="usY2DlJmlBuPkNGMXfCU-20" target="usY2DlJmlBuPkNGMXfCU-14" edge="1">
          <mxGeometry width="50" height="50" relative="1" as="geometry">
            <mxPoint x="390" y="230" as="sourcePoint" />
            <mxPoint x="440" y="180" as="targetPoint" />
          </mxGeometry>
        </mxCell>
        <mxCell id="usY2DlJmlBuPkNGMXfCU-22" value="" style="endArrow=classic;startArrow=classic;html=1;rounded=0;flowAnimation=1;" parent="1" source="usY2DlJmlBuPkNGMXfCU-13" target="usY2DlJmlBuPkNGMXfCU-20" edge="1">
          <mxGeometry width="50" height="50" relative="1" as="geometry">
            <mxPoint x="350" y="439" as="sourcePoint" />
            <mxPoint x="400" y="389" as="targetPoint" />
          </mxGeometry>
        </mxCell>
        <mxCell id="usY2DlJmlBuPkNGMXfCU-24" value="" style="endArrow=classic;startArrow=classic;html=1;rounded=0;flowAnimation=1;" parent="1" source="usY2DlJmlBuPkNGMXfCU-7" target="usY2DlJmlBuPkNGMXfCU-20" edge="1">
          <mxGeometry width="50" height="50" relative="1" as="geometry">
            <mxPoint x="395" y="294" as="sourcePoint" />
            <mxPoint x="470" y="274" as="targetPoint" />
          </mxGeometry>
        </mxCell>
        <mxCell id="usY2DlJmlBuPkNGMXfCU-36" value="" style="rounded=1;arcSize=10;dashed=1;strokeColor=#ff0000;fillColor=none;gradientColor=none;dashPattern=8 4;strokeWidth=2;" parent="1" vertex="1">
          <mxGeometry x="560" y="390" width="100" height="100" as="geometry" />
        </mxCell>
        <mxCell id="usY2DlJmlBuPkNGMXfCU-15" value="AWS Fargate" style="sketch=0;outlineConnect=0;fontColor=#232F3E;gradientColor=none;strokeColor=#ffffff;fillColor=#232F3E;dashed=0;verticalLabelPosition=middle;verticalAlign=bottom;align=center;html=1;whiteSpace=wrap;fontSize=10;fontStyle=1;spacing=3;shape=mxgraph.aws4.productIcon;prIcon=mxgraph.aws4.fargate;" parent="1" vertex="1">
          <mxGeometry x="580" y="400" width="60" height="90" as="geometry" />
        </mxCell>
        <mxCell id="usY2DlJmlBuPkNGMXfCU-39" value="&lt;br&gt;&lt;div&gt;&lt;br&gt;&lt;/div&gt;&lt;div&gt;&lt;br&gt;&lt;/div&gt;&lt;div&gt;&lt;br&gt;&lt;/div&gt;&lt;div&gt;&lt;br&gt;&lt;/div&gt;&lt;div&gt;&lt;br&gt;&lt;/div&gt;&lt;div&gt;Amazon ECR&lt;/div&gt;" style="sketch=0;outlineConnect=0;fontColor=#232F3E;gradientColor=none;strokeColor=#ffffff;fillColor=#232F3E;dashed=0;verticalLabelPosition=middle;verticalAlign=bottom;align=center;html=1;whiteSpace=wrap;fontSize=10;fontStyle=1;spacing=3;shape=mxgraph.aws4.productIcon;prIcon=mxgraph.aws4.ecr;" parent="1" vertex="1">
          <mxGeometry x="990" y="155" width="70" height="90" as="geometry" />
        </mxCell>
        <mxCell id="usY2DlJmlBuPkNGMXfCU-40" value="Amazon CloudWatch" style="sketch=0;outlineConnect=0;fontColor=#232F3E;gradientColor=none;strokeColor=#ffffff;fillColor=#232F3E;dashed=0;verticalLabelPosition=middle;verticalAlign=bottom;align=center;html=1;whiteSpace=wrap;fontSize=10;fontStyle=1;spacing=3;shape=mxgraph.aws4.productIcon;prIcon=mxgraph.aws4.cloudwatch;" parent="1" vertex="1">
          <mxGeometry x="987.5" y="380" width="72.5" height="110" as="geometry" />
        </mxCell>
        <mxCell id="usY2DlJmlBuPkNGMXfCU-41" value="ECS pulls image from ECR" style="endArrow=classic;html=1;rounded=0;flowAnimation=1;" parent="1" source="usY2DlJmlBuPkNGMXfCU-39" target="usY2DlJmlBuPkNGMXfCU-33" edge="1">
          <mxGeometry x="-0.0123" y="-12" width="50" height="50" relative="1" as="geometry">
            <mxPoint x="540" y="330" as="sourcePoint" />
            <mxPoint x="590" y="280" as="targetPoint" />
            <mxPoint as="offset" />
          </mxGeometry>
        </mxCell>
        <mxCell id="usY2DlJmlBuPkNGMXfCU-42" value="" style="endArrow=classic;html=1;rounded=0;noJump=0;flowAnimation=1;ignoreEdge=0;orthogonal=0;enumerate=0;comic=0;orthogonalLoop=0;" parent="1" source="usY2DlJmlBuPkNGMXfCU-39" target="usY2DlJmlBuPkNGMXfCU-15" edge="1">
          <mxGeometry width="50" height="50" relative="1" as="geometry">
            <mxPoint x="820" y="229" as="sourcePoint" />
            <mxPoint x="670" y="245" as="targetPoint" />
          </mxGeometry>
        </mxCell>
        <mxCell id="usY2DlJmlBuPkNGMXfCU-43" value="ECS pulls image from ECR" style="edgeLabel;html=1;align=center;verticalAlign=middle;resizable=0;points=[];" parent="usY2DlJmlBuPkNGMXfCU-42" vertex="1" connectable="0">
          <mxGeometry x="-0.0522" y="2" relative="1" as="geometry">
            <mxPoint x="34" y="-28" as="offset" />
          </mxGeometry>
        </mxCell>
        <mxCell id="usY2DlJmlBuPkNGMXfCU-44" value="" style="endArrow=classic;html=1;rounded=0;flowAnimation=1;" parent="1" source="usY2DlJmlBuPkNGMXfCU-15" target="usY2DlJmlBuPkNGMXfCU-40" edge="1">
          <mxGeometry width="50" height="50" relative="1" as="geometry">
            <mxPoint x="540" y="330" as="sourcePoint" />
            <mxPoint x="590" y="280" as="targetPoint" />
          </mxGeometry>
        </mxCell>
        <mxCell id="usY2DlJmlBuPkNGMXfCU-47" value="&lt;div&gt;ECS sends logs&lt;/div&gt;&lt;div&gt;to Cloudwatch&lt;/div&gt;" style="edgeLabel;html=1;align=center;verticalAlign=middle;resizable=0;points=[];" parent="usY2DlJmlBuPkNGMXfCU-44" vertex="1" connectable="0">
          <mxGeometry x="-0.061" y="-3" relative="1" as="geometry">
            <mxPoint x="15" y="-1" as="offset" />
          </mxGeometry>
        </mxCell>
        <mxCell id="usY2DlJmlBuPkNGMXfCU-45" value="" style="endArrow=classic;html=1;rounded=0;flowAnimation=1;" parent="1" source="usY2DlJmlBuPkNGMXfCU-16" target="usY2DlJmlBuPkNGMXfCU-40" edge="1">
          <mxGeometry width="50" height="50" relative="1" as="geometry">
            <mxPoint x="650" y="454" as="sourcePoint" />
            <mxPoint x="810" y="451" as="targetPoint" />
          </mxGeometry>
        </mxCell>
        <mxCell id="usY2DlJmlBuPkNGMXfCU-46" value="&lt;div&gt;ECS Sends logs&lt;/div&gt;&lt;div&gt;to Cloudwatch&lt;br&gt;&lt;/div&gt;" style="edgeLabel;html=1;align=center;verticalAlign=middle;resizable=0;points=[];" parent="usY2DlJmlBuPkNGMXfCU-45" vertex="1" connectable="0">
          <mxGeometry x="0.381" y="-1" relative="1" as="geometry">
            <mxPoint x="1" as="offset" />
          </mxGeometry>
        </mxCell>
      </root>
    </mxGraphModel>
  </diagram>
</mxfile>
